<?xml version="1.0" encoding="UTF-8" standalone="no"?><svg xmlns="http://www.w3.org/2000/svg" xmlns:xlink="http://www.w3.org/1999/xlink" contentStyleType="text/css" height="337px" preserveAspectRatio="none" style="width:1268px;height:337px;background:#FFFFFF;" version="1.1" viewBox="0 0 1268 337" width="1268px" zoomAndPan="magnify"><defs/><g><g id="elem_RSPGame"><rect fill="#F1F1F1" height="36.2969" style="stroke:#181818;stroke-width:0.5;" width="84" x="408.5" y="7"/><text fill="#000000" font-family="sans-serif" font-size="14" lengthAdjust="spacing" textLength="70" x="415.5" y="21.9951">RSPGame</text><line style="stroke:#181818;stroke-width:0.5;" x1="409.5" x2="491.5" y1="27.2969" y2="27.2969"/></g><g id="elem_Player"><rect fill="#F1F1F1" height="36.2969" style="stroke:#181818;stroke-width:0.5;" width="58" x="353.5" y="199"/><text fill="#000000" font-family="sans-serif" font-size="14" lengthAdjust="spacing" textLength="44" x="360.5" y="213.9951">Player</text><line style="stroke:#181818;stroke-width:0.5;" x1="354.5" x2="410.5" y1="219.2969" y2="219.2969"/></g><g id="elem_id"><rect fill="#F1F1F1" height="36.2969" style="stroke:#181818;stroke-width:0.5;" width="27" x="216" y="295"/><text fill="#000000" font-family="sans-serif" font-size="14" lengthAdjust="spacing" textLength="13" x="223" y="309.9951">id</text><line style="stroke:#181818;stroke-width:0.5;" x1="217" x2="242" y1="315.2969" y2="315.2969"/></g><g id="elem_name"><rect fill="#F1F1F1" height="36.2969" style="stroke:#181818;stroke-width:0.5;" width="54" x="278.5" y="295"/><text fill="#000000" font-family="sans-serif" font-size="14" lengthAdjust="spacing" textLength="40" x="285.5" y="309.9951">name</text><line style="stroke:#181818;stroke-width:0.5;" x1="279.5" x2="331.5" y1="315.2969" y2="315.2969"/></g><g id="elem_isHuman"><rect fill="#F1F1F1" height="36.2969" style="stroke:#181818;stroke-width:0.5;" width="74" x="367.5" y="295"/><text fill="#000000" font-family="sans-serif" font-size="14" lengthAdjust="spacing" textLength="60" x="374.5" y="309.9951">isHuman</text><line style="stroke:#181818;stroke-width:0.5;" x1="368.5" x2="440.5" y1="315.2969" y2="315.2969"/></g><g id="elem_PlayerGoals"><rect fill="#F1F1F1" height="36.2969" style="stroke:#181818;stroke-width:0.5;" width="97" x="84" y="295"/><text fill="#000000" font-family="sans-serif" font-size="14" lengthAdjust="spacing" textLength="83" x="91" y="309.9951">PlayerGoals</text><line style="stroke:#181818;stroke-width:0.5;" x1="85" x2="180" y1="315.2969" y2="315.2969"/></g><g id="elem_makeMovement"><rect fill="#F1F1F1" height="36.2969" style="stroke:#181818;stroke-width:0.5;" width="131" x="7" y="199"/><text fill="#000000" font-family="sans-serif" font-size="14" lengthAdjust="spacing" textLength="117" x="14" y="213.9951">makeMovement</text><line style="stroke:#181818;stroke-width:0.5;" x1="8" x2="137" y1="219.2969" y2="219.2969"/></g><g id="elem_win"><rect fill="#F1F1F1" height="36.2969" style="stroke:#181818;stroke-width:0.5;" width="38" x="173.5" y="199"/><text fill="#000000" font-family="sans-serif" font-size="14" lengthAdjust="spacing" textLength="24" x="180.5" y="213.9951">win</text><line style="stroke:#181818;stroke-width:0.5;" x1="174.5" x2="210.5" y1="219.2969" y2="219.2969"/></g><g id="elem_Human"><rect fill="#F1F1F1" height="36.2969" style="stroke:#181818;stroke-width:0.5;" width="63" x="351" y="103"/><text fill="#000000" font-family="sans-serif" font-size="14" lengthAdjust="spacing" textLength="49" x="358" y="117.9951">Human</text><line style="stroke:#181818;stroke-width:0.5;" x1="352" x2="413" y1="123.2969" y2="123.2969"/></g><g id="elem_Computer"><rect fill="#F1F1F1" height="36.2969" style="stroke:#181818;stroke-width:0.5;" width="87" x="449" y="103"/><text fill="#000000" font-family="sans-serif" font-size="14" lengthAdjust="spacing" textLength="73" x="456" y="117.9951">Computer</text><line style="stroke:#181818;stroke-width:0.5;" x1="450" x2="535" y1="123.2969" y2="123.2969"/></g><g id="elem_Shapes"><rect fill="#F1F1F1" height="36.2969" style="stroke:#181818;stroke-width:0.5;" width="66" x="555.5" y="199"/><text fill="#000000" font-family="sans-serif" font-size="14" lengthAdjust="spacing" textLength="52" x="562.5" y="213.9951">Shapes</text><line style="stroke:#181818;stroke-width:0.5;" x1="556.5" x2="620.5" y1="219.2969" y2="219.2969"/></g><g id="elem_rock"><rect fill="#F1F1F1" height="36.2969" style="stroke:#181818;stroke-width:0.5;" width="46" x="476.5" y="295"/><text fill="#000000" font-family="sans-serif" font-size="14" lengthAdjust="spacing" textLength="32" x="483.5" y="309.9951">rock</text><line style="stroke:#181818;stroke-width:0.5;" x1="477.5" x2="521.5" y1="315.2969" y2="315.2969"/></g><g id="elem_scissor"><rect fill="#F1F1F1" height="36.2969" style="stroke:#181818;stroke-width:0.5;" width="62" x="557.5" y="295"/><text fill="#000000" font-family="sans-serif" font-size="14" lengthAdjust="spacing" textLength="48" x="564.5" y="309.9951">scissor</text><line style="stroke:#181818;stroke-width:0.5;" x1="558.5" x2="618.5" y1="315.2969" y2="315.2969"/></g><g id="elem_paper"><rect fill="#F1F1F1" height="36.2969" style="stroke:#181818;stroke-width:0.5;" width="57" x="655" y="295"/><text fill="#000000" font-family="sans-serif" font-size="14" lengthAdjust="spacing" textLength="43" x="662" y="309.9951">paper</text><line style="stroke:#181818;stroke-width:0.5;" x1="656" x2="711" y1="315.2969" y2="315.2969"/></g><g id="elem_Score"><rect fill="#F1F1F1" height="36.2969" style="stroke:#181818;stroke-width:0.5;" width="55" x="706" y="103"/><text fill="#000000" font-family="sans-serif" font-size="14" lengthAdjust="spacing" textLength="41" x="713" y="117.9951">Score</text><line style="stroke:#181818;stroke-width:0.5;" x1="707" x2="760" y1="123.2969" y2="123.2969"/></g><g id="elem_ScoreGoals"><rect fill="#F1F1F1" height="36.2969" style="stroke:#181818;stroke-width:0.5;" width="94" x="889.5" y="199"/><text fill="#000000" font-family="sans-serif" font-size="14" lengthAdjust="spacing" textLength="80" x="896.5" y="213.9951">ScoreGoals</text><line style="stroke:#181818;stroke-width:0.5;" x1="890.5" x2="982.5" y1="219.2969" y2="219.2969"/></g><g id="elem_displayHistory"><rect fill="#F1F1F1" height="36.2969" style="stroke:#181818;stroke-width:0.5;" width="115" x="862" y="103"/><text fill="#000000" font-family="sans-serif" font-size="14" lengthAdjust="spacing" textLength="101" x="869" y="117.9951">displayHistory</text><line style="stroke:#181818;stroke-width:0.5;" x1="863" x2="976" y1="123.2969" y2="123.2969"/></g><g id="elem_displayWinner"><rect fill="#F1F1F1" height="36.2969" style="stroke:#181818;stroke-width:0.5;" width="115" x="1012" y="103"/><text fill="#000000" font-family="sans-serif" font-size="14" lengthAdjust="spacing" textLength="101" x="1019" y="117.9951">displayWinner</text><line style="stroke:#181818;stroke-width:0.5;" x1="1013" x2="1126" y1="123.2969" y2="123.2969"/></g><g id="elem_Rounds"><rect fill="#F1F1F1" height="36.2969" style="stroke:#181818;stroke-width:0.5;" width="66" x="571.5" y="103"/><text fill="#000000" font-family="sans-serif" font-size="14" lengthAdjust="spacing" textLength="52" x="578.5" y="117.9951">Rounds</text><line style="stroke:#181818;stroke-width:0.5;" x1="572.5" x2="636.5" y1="123.2969" y2="123.2969"/></g><g id="elem_RoundGoals"><rect fill="#F1F1F1" height="36.2969" style="stroke:#181818;stroke-width:0.5;" width="98" x="756.5" y="199"/><text fill="#000000" font-family="sans-serif" font-size="14" lengthAdjust="spacing" textLength="84" x="763.5" y="213.9951">RoundGoals</text><line style="stroke:#181818;stroke-width:0.5;" x1="757.5" x2="853.5" y1="219.2969" y2="219.2969"/></g><g id="elem_executeRound"><rect fill="#F1F1F1" height="36.2969" style="stroke:#181818;stroke-width:0.5;" width="117" x="747" y="295"/><text fill="#000000" font-family="sans-serif" font-size="14" lengthAdjust="spacing" textLength="103" x="754" y="309.9951">executeRound</text><line style="stroke:#181818;stroke-width:0.5;" x1="748" x2="863" y1="315.2969" y2="315.2969"/></g><g id="elem_determineRoundWinner"><rect fill="#F1F1F1" height="36.2969" style="stroke:#181818;stroke-width:0.5;" width="186" x="899.5" y="295"/><text fill="#000000" font-family="sans-serif" font-size="14" lengthAdjust="spacing" textLength="172" x="906.5" y="309.9951">determineRoundWinner</text><line style="stroke:#181818;stroke-width:0.5;" x1="900.5" x2="1084.5" y1="315.2969" y2="315.2969"/></g><g id="elem_determineWinner"><rect fill="#F1F1F1" height="36.2969" style="stroke:#181818;stroke-width:0.5;" width="141" x="1121" y="295"/><text fill="#000000" font-family="sans-serif" font-size="14" lengthAdjust="spacing" textLength="127" x="1128" y="309.9951">determineWinner</text><line style="stroke:#181818;stroke-width:0.5;" x1="1122" x2="1261" y1="315.2969" y2="315.2969"/></g><!--reverse link RSPGame to Player--><g id="link_RSPGame_Player"><path codeLine="27" d="M396.538,47.237 C372.685,59.658 347.022,77.913 333.5,103 C315.846,135.752 344.827,176.185 365.205,198.727 " fill="none" id="RSPGame-backto-Player" style="stroke:#181818;stroke-width:1.0;"/><polygon fill="#181818" points="408.406,41.436,401.259,40.4769,397.6248,46.7053,404.7718,47.6644,408.406,41.436" style="stroke:#181818;stroke-width:1.0;"/></g><!--reverse link RSPGame to Rounds--><g id="link_RSPGame_Rounds"><path codeLine="28" d="M489.817,49.999 C516.926,66.546 552.307,88.142 576.559,102.945 " fill="none" id="RSPGame-backto-Rounds" style="stroke:#181818;stroke-width:1.0;"/><polygon fill="#181818" points="478.388,43.023,481.4253,49.5633,488.6306,49.2751,485.5933,42.7349,478.388,43.023" style="stroke:#181818;stroke-width:1.0;"/></g><!--reverse link Rounds to RoundGoals--><g id="link_Rounds_RoundGoals"><path codeLine="30" d="M649.79,143.18 C685.744,159.995 735.369,183.202 768.853,198.861 " fill="none" id="Rounds-backto-RoundGoals" style="stroke:#181818;stroke-width:1.0;"/><polygon fill="#181818" points="637.691,137.522,641.4315,143.6871,648.561,142.6056,644.8205,136.4404,637.691,137.522" style="stroke:#181818;stroke-width:1.0;"/></g><!--link RoundGoals to executeRound--><g id="link_RoundGoals_executeRound"><path codeLine="31" d="M805.5,235.241 C805.5,250.4791 805.5,272.8069 805.5,289.4576 " fill="none" id="RoundGoals-to-executeRound" style="stroke:#181818;stroke-width:1.0;"/><polygon fill="#181818" points="805.5,294.8683,809.5,285.8683,805.5,289.8683,801.5,285.8683,805.5,294.8683" style="stroke:#181818;stroke-width:1.0;"/></g><!--link RoundGoals to determineRoundWinner--><g id="link_RoundGoals_determineRoundWinner"><path codeLine="32" d="M839.364,235.0227 C871.566,251.2097 919.965,275.5384 953.704,292.4984 " fill="none" id="RoundGoals-to-determineRoundWinner" style="stroke:#181818;stroke-width:1.0;"/><polygon fill="#181818" points="958.572,294.9454,952.3273,287.3293,954.1047,292.6997,948.7343,294.4771,958.572,294.9454" style="stroke:#181818;stroke-width:1.0;"/></g><!--link RoundGoals to determineWinner--><g id="link_RoundGoals_determineWinner"><path codeLine="33" d="M854.516,230.507 C860.57,232.0311 866.676,233.5582 872.5,235 C955.639,255.5808 1051.14,278.5434 1115.81,293.9931 " fill="none" id="RoundGoals-to-determineWinner" style="stroke:#181818;stroke-width:1.0;"/><polygon fill="#181818" points="1120.81,295.1851,1112.9803,289.2105,1115.9458,294.0277,1111.1285,296.9932,1120.81,295.1851" style="stroke:#181818;stroke-width:1.0;"/></g><!--link Human to Player--><g id="link_Human_Player"><path codeLine="35" d="M382.5,139.241 C382.5,150.239 382.5,164.93 382.5,178.514 " fill="none" id="Human-to-Player" style="stroke:#181818;stroke-width:1.0;"/><polygon fill="none" points="389.5,178.868,382.5,198.868,375.5,178.868,389.5,178.868" style="stroke:#181818;stroke-width:1.0;"/></g><!--link Computer to Player--><g id="link_Computer_Player"><path codeLine="36" d="M472.58,139.023 C457.411,151.985 436.133,170.168 418.066,185.607 " fill="none" id="Computer-to-Player" style="stroke:#181818;stroke-width:1.0;"/><polygon fill="none" points="422.396,191.115,402.644,198.786,413.301,180.472,422.396,191.115" style="stroke:#181818;stroke-width:1.0;"/></g><!--reverse link Rounds to Player--><g id="link_Rounds_Player"><path codeLine="38" d="M559.156,141.2 C515.033,159.882 449.304,187.714 411.706,203.633 " fill="none" id="Rounds-backto-Player" style="stroke:#181818;stroke-width:1.0;"/><polygon fill="#181818" points="571.264,136.073,564.1793,134.7288,560.2136,140.7516,567.2984,142.0958,571.264,136.073" style="stroke:#181818;stroke-width:1.0;"/></g><!--link Rounds to Shapes--><g id="link_Rounds_Shapes"><path codeLine="39" d="M601.565,139.241 C598.949,154.612 595.105,177.196 592.263,193.891 " fill="none" id="Rounds-to-Shapes" style="stroke:#181818;stroke-width:1.0;"/><polygon fill="#181818" points="591.416,198.868,596.8712,190.668,592.2561,193.9391,588.985,189.3239,591.416,198.868" style="stroke:#181818;stroke-width:1.0;"/></g><!--reverse link Score to ScoreGoals--><g id="link_Score_ScoreGoals"><path codeLine="41" d="M773.508,140.526 C810.213,157.522 864.137,182.492 899.77,198.992 " fill="none" id="Score-backto-ScoreGoals" style="stroke:#181818;stroke-width:1.0;"/><polygon fill="#181818" points="761.301,134.873,765.0648,141.0239,772.1902,139.9154,768.4264,133.7645,761.301,134.873" style="stroke:#181818;stroke-width:1.0;"/></g><!--reverse link Player to id--><g id="link_Player_id"><path codeLine="43" d="M343.322,242.0702 C310.523,262.2212 265.601,289.8206 243.268,303.541 " fill="none" id="Player-backto-id" style="stroke:#181818;stroke-width:1.0;"/><polygon fill="#181818" points="354.793,235.0227,347.5868,234.7556,344.5687,241.3047,351.7749,241.5718,354.793,235.0227" style="stroke:#181818;stroke-width:1.0;"/></g><!--reverse link Player to name--><g id="link_Player_name"><path codeLine="44" d="M359.898,245.5917 C346.83,261.5455 330.797,281.1185 319.533,294.8683 " fill="none" id="Player-backto-name" style="stroke:#181818;stroke-width:1.0;"/><polygon fill="#181818" points="368.377,235.241,361.4806,237.348,360.773,244.5243,367.6694,242.4173,368.377,235.241" style="stroke:#181818;stroke-width:1.0;"/></g><!--reverse link Player to isHuman--><g id="link_Player_isHuman"><path codeLine="45" d="M389.502,247.9168 C393.129,263.414 397.427,281.7795 400.49,294.8683 " fill="none" id="Player-backto-isHuman" style="stroke:#181818;stroke-width:1.0;"/><polygon fill="#181818" points="386.535,235.241,384.0075,241.9947,389.2695,246.9253,391.797,240.1716,386.535,235.241" style="stroke:#181818;stroke-width:1.0;"/></g><!--reverse link Player to PlayerGoals--><g id="link_Player_PlayerGoals"><path codeLine="46" d="M341.119,233.5591 C296.139,250.4716 224.477,277.4166 177.958,294.9079 " fill="none" id="Player-backto-PlayerGoals" style="stroke:#181818;stroke-width:1.0;"/><polygon fill="#181818" points="353.333,228.967,346.3091,227.3347,342.1008,233.1905,349.1247,234.8228,353.333,228.967" style="stroke:#181818;stroke-width:1.0;"/></g><!--link Player to Shapes--><g id="link_Player_Shapes"><path codeLine="47" d="M411.871,217 C458.026,217 504.182,217 550.337,217 " fill="none" id="Player-to-Shapes" style="stroke:#181818;stroke-width:1.0;"/><polygon fill="#181818" points="555.382,217,546.382,213,550.382,217,546.382,221,555.382,217" style="stroke:#181818;stroke-width:1.0;"/></g><!--link makeMovement to PlayerGoals--><g id="link_makeMovement_PlayerGoals"><path codeLine="49" d="M83.5049,235.241 C91.1169,247.1665 101.5006,263.4342 110.75,277.9247 " fill="none" id="makeMovement-to-PlayerGoals" style="stroke:#181818;stroke-width:1.0;"/><polygon fill="none" points="116.705,274.2435,121.565,294.8683,104.9036,281.7761,116.705,274.2435" style="stroke:#181818;stroke-width:1.0;"/></g><!--link win to PlayerGoals--><g id="link_win_PlayerGoals"><path codeLine="50" d="M181.495,235.241 C173.883,247.1665 163.499,263.4342 154.25,277.9247 " fill="none" id="win-to-PlayerGoals" style="stroke:#181818;stroke-width:1.0;"/><polygon fill="none" points="160.096,281.7761,143.435,294.8683,148.295,274.2435,160.096,281.7761" style="stroke:#181818;stroke-width:1.0;"/></g><!--link displayHistory to ScoreGoals--><g id="link_displayHistory_ScoreGoals"><path codeLine="52" d="M922.618,139.241 C924.631,150.371 927.328,165.284 929.809,179.005 " fill="none" id="displayHistory-to-ScoreGoals" style="stroke:#181818;stroke-width:1.0;"/><polygon fill="none" points="936.731,177.942,933.402,198.868,922.954,180.433,936.731,177.942" style="stroke:#181818;stroke-width:1.0;"/></g><!--link displayWinner to ScoreGoals--><g id="link_displayWinner_ScoreGoals"><path codeLine="53" d="M1045.41,139.023 C1026.51,152.382 999.766,171.286 977.508,187.017 " fill="none" id="displayWinner-to-ScoreGoals" style="stroke:#181818;stroke-width:1.0;"/><polygon fill="none" points="981.228,192.959,960.856,198.786,973.148,181.527,981.228,192.959" style="stroke:#181818;stroke-width:1.0;"/></g><!--link Shapes to rock--><g id="link_Shapes_rock"><path codeLine="55" d="M572.176,235.241 C557.247,251.0091 535.13,274.3687 519.218,291.1739 " fill="none" id="Shapes-to-rock" style="stroke:#181818;stroke-width:1.0;"/><polygon fill="#181818" points="515.72,294.8683,524.812,291.0821,519.1573,291.2372,519.0022,285.5824,515.72,294.8683" style="stroke:#181818;stroke-width:1.0;"/></g><!--link Shapes to paper--><g id="link_Shapes_paper"><path codeLine="56" d="M605.924,235.241 C621.86,251.0091 645.468,274.3687 662.452,291.1739 " fill="none" id="Shapes-to-paper" style="stroke:#181818;stroke-width:1.0;"/><polygon fill="#181818" points="666.186,294.8683,662.6024,285.6945,662.632,291.3513,656.9752,291.3809,666.186,294.8683" style="stroke:#181818;stroke-width:1.0;"/></g><!--link Shapes to scissor--><g id="link_Shapes_scissor"><path codeLine="57" d="M588.5,235.241 C588.5,250.4791 588.5,272.8069 588.5,289.4576 " fill="none" id="Shapes-to-scissor" style="stroke:#181818;stroke-width:1.0;"/><polygon fill="#181818" points="588.5,294.8683,592.5,285.8683,588.5,289.8683,584.5,285.8683,588.5,294.8683" style="stroke:#181818;stroke-width:1.0;"/></g><!--reverse link Rounds to Score--><g id="link_Rounds_Score"><path codeLine="59" d="M642.571,121 C663.631,121 684.691,121 705.752,121 " fill="none" id="Rounds-backto-Score" style="stroke:#181818;stroke-width:1.0;"/><polygon fill="#181818" points="637.506,121,646.506,125,642.506,121,646.506,117,637.506,121" style="stroke:#181818;stroke-width:1.0;"/></g><!--SRC=[VLF1Ri8m3Btp5JrFoYzmsG4kan0STivQCpAQk4fI6D8-dk2aZPkswm7HzvxhP-iPltwWzjNnTDX93PigF1YXGoiVO0aPdiIePWarGtsfTljUIxCfuFZv7ShMBLLfUOKFl846uvVukp8Jc3lF_HBmZhhhVHY6WwUBxC2LjYpMrn9pjN8ERGbteTvElbYZXL95uEgOZN9TMCHUEO_syO_YKnapxNR4tZGp_uIkjeDVgCCYIBJO3CAMj39HmNgkwPA4D2b3rPiGF3mSJfuZJlypd4tdrqg8xTnqmQ-QNjDnqvILIZHuD-9lotqFePcHfNi-QqHVtLYyw8ToG7gM269YFL7fiXWoNXLNiOjYS7bHYH9MVLzyTaGSFwzWTnmkLuS3cnF4J3CRHKNA9w6TAU8-o0sjQhmvXkNZOk1mY6oXeeNpQxYu-IS0]--></g></svg>