<?xml version="1.0" encoding="UTF-8" standalone="no"?><svg xmlns="http://www.w3.org/2000/svg" xmlns:xlink="http://www.w3.org/1999/xlink" contentStyleType="text/css" height="840px" preserveAspectRatio="none" style="width:234px;height:840px;background:#FFFFFF;" version="1.1" viewBox="0 0 234 840" width="234px" zoomAndPan="magnify"><defs/><g><ellipse cx="103.5" cy="20" fill="#222222" rx="10" ry="10" style="stroke:#222222;stroke-width:1.0;"/><rect fill="#F1F1F1" height="33.9688" rx="12.5" ry="12.5" style="stroke:#181818;stroke-width:0.5;" width="120" x="43.5" y="50"/><text fill="#000000" font-family="sans-serif" font-size="12" lengthAdjust="spacing" textLength="100" x="53.5" y="71.1387">UserRegistration</text><rect fill="#F1F1F1" height="33.9688" rx="12.5" ry="12.5" style="stroke:#181818;stroke-width:0.5;" width="96" x="55.5" y="147.9688"/><text fill="#000000" font-family="sans-serif" font-size="12" lengthAdjust="spacing" textLength="76" x="65.5" y="169.1074">input Andres</text><rect fill="#F1F1F1" height="33.9688" rx="12.5" ry="12.5" style="stroke:#181818;stroke-width:0.5;" width="77" x="65" y="201.9375"/><text fill="#000000" font-family="sans-serif" font-size="12" lengthAdjust="spacing" textLength="57" x="75" y="223.0762">input true</text><rect fill="#F1F1F1" height="33.9688" rx="12.5" ry="12.5" style="stroke:#181818;stroke-width:0.5;" width="60" x="73.5" y="255.9063"/><text fill="#000000" font-family="sans-serif" font-size="12" lengthAdjust="spacing" textLength="40" x="83.5" y="277.0449">input 1</text><polygon fill="#F1F1F1" points="103.5,103.9688,115.5,115.9688,103.5,127.9688,91.5,115.9688,103.5,103.9688" style="stroke:#181818;stroke-width:0.5;"/><polygon fill="#F1F1F1" points="67,309.875,140,309.875,152,321.875,140,333.875,67,333.875,55,321.875,67,309.875" style="stroke:#181818;stroke-width:0.5;"/><text fill="#000000" font-family="sans-serif" font-size="11" lengthAdjust="spacing" textLength="73" x="67" y="325.6831">AddNewUser</text><text fill="#000000" font-family="sans-serif" font-size="11" lengthAdjust="spacing" textLength="7" x="152" y="319.2808">1</text><rect fill="#F1F1F1" height="33.9688" rx="12.5" ry="12.5" style="stroke:#181818;stroke-width:0.5;" width="105" x="51" y="353.875"/><text fill="#000000" font-family="sans-serif" font-size="12" lengthAdjust="spacing" textLength="85" x="61" y="375.0137">UserSelection</text><rect fill="#F1F1F1" height="33.9688" rx="12.5" ry="12.5" style="stroke:#181818;stroke-width:0.5;" width="77" x="65" y="451.8438"/><text fill="#000000" font-family="sans-serif" font-size="12" lengthAdjust="spacing" textLength="57" x="75" y="472.9824">select U1</text><rect fill="#F1F1F1" height="33.9688" rx="12.5" ry="12.5" style="stroke:#181818;stroke-width:0.5;" width="78" x="64.5" y="513.3125"/><text fill="#000000" font-family="sans-serif" font-size="12" lengthAdjust="spacing" textLength="58" x="74.5" y="534.4512">select U2</text><polygon fill="#F1F1F1" points="103.5,407.8438,115.5,419.8438,103.5,431.8438,91.5,419.8438,103.5,407.8438" style="stroke:#181818;stroke-width:0.5;"/><polygon fill="#F1F1F1" points="75.5,567.2813,131.5,567.2813,143.5,579.2813,131.5,591.2813,75.5,591.2813,63.5,579.2813,75.5,567.2813" style="stroke:#181818;stroke-width:0.5;"/><text fill="#000000" font-family="sans-serif" font-size="11" lengthAdjust="spacing" textLength="56" x="75.5" y="583.0894">U1 == U2</text><text fill="#000000" font-family="sans-serif" font-size="11" lengthAdjust="spacing" textLength="35" x="143.5" y="576.687">isTrue</text><rect fill="#F1F1F1" height="33.9688" rx="12.5" ry="12.5" style="stroke:#181818;stroke-width:0.5;" width="55" x="76" y="611.2813"/><text fill="#000000" font-family="sans-serif" font-size="12" lengthAdjust="spacing" textLength="35" x="86" y="632.4199">Game</text><rect fill="#F1F1F1" height="33.9688" rx="12.5" ry="12.5" style="stroke:#181818;stroke-width:0.5;" width="163" x="22" y="709.25"/><text fill="#000000" font-family="sans-serif" font-size="12" lengthAdjust="spacing" textLength="143" x="32" y="730.3887">select action#forUser#</text><polygon fill="#F1F1F1" points="103.5,665.25,115.5,677.25,103.5,689.25,91.5,677.25,103.5,665.25" style="stroke:#181818;stroke-width:0.5;"/><polygon fill="#F1F1F1" points="32,763.2188,175,763.2188,187,775.2188,175,787.2188,32,787.2188,20,775.2188,32,763.2188" style="stroke:#181818;stroke-width:0.5;"/><text fill="#000000" font-family="sans-serif" font-size="11" lengthAdjust="spacing" textLength="143" x="32" y="779.0269">round &lt;= 3 || tie == true</text><text fill="#000000" font-family="sans-serif" font-size="11" lengthAdjust="spacing" textLength="35" x="187" y="772.6245">isTrue</text><ellipse cx="103.5" cy="818.2188" fill="none" rx="11" ry="11" style="stroke:#222222;stroke-width:1.0;"/><ellipse cx="103.5" cy="818.2188" fill="#222222" rx="6" ry="6" style="stroke:#111111;stroke-width:1.0;"/><line style="stroke:#181818;stroke-width:1.0;" x1="103.5" x2="103.5" y1="30" y2="50"/><polygon fill="#181818" points="99.5,40,103.5,50,107.5,40,103.5,44" style="stroke:#181818;stroke-width:1.0;"/><line style="stroke:#181818;stroke-width:1.0;" x1="103.5" x2="103.5" y1="181.9375" y2="201.9375"/><polygon fill="#181818" points="99.5,191.9375,103.5,201.9375,107.5,191.9375,103.5,195.9375" style="stroke:#181818;stroke-width:1.0;"/><line style="stroke:#181818;stroke-width:1.0;" x1="103.5" x2="103.5" y1="235.9063" y2="255.9063"/><polygon fill="#181818" points="99.5,245.9063,103.5,255.9063,107.5,245.9063,103.5,249.9063" style="stroke:#181818;stroke-width:1.0;"/><line style="stroke:#181818;stroke-width:1.0;" x1="103.5" x2="103.5" y1="127.9688" y2="147.9688"/><polygon fill="#181818" points="99.5,137.9688,103.5,147.9688,107.5,137.9688,103.5,141.9688" style="stroke:#181818;stroke-width:1.0;"/><line style="stroke:#181818;stroke-width:1.0;" x1="152" x2="164" y1="321.875" y2="321.875"/><polygon fill="#181818" points="160,228.9219,164,218.9219,168,228.9219,164,224.9219" style="stroke:#181818;stroke-width:1.0;"/><line style="stroke:#181818;stroke-width:1.0;" x1="164" x2="164" y1="115.9688" y2="321.875"/><line style="stroke:#181818;stroke-width:1.0;" x1="164" x2="115.5" y1="115.9688" y2="115.9688"/><polygon fill="#181818" points="125.5,111.9688,115.5,115.9688,125.5,119.9688,121.5,115.9688" style="stroke:#181818;stroke-width:1.0;"/><line style="stroke:#181818;stroke-width:1.0;" x1="103.5" x2="103.5" y1="289.875" y2="309.875"/><polygon fill="#181818" points="99.5,299.875,103.5,309.875,107.5,299.875,103.5,303.875" style="stroke:#181818;stroke-width:1.0;"/><line style="stroke:#181818;stroke-width:1.0;" x1="103.5" x2="103.5" y1="83.9688" y2="103.9688"/><polygon fill="#181818" points="99.5,93.9688,103.5,103.9688,107.5,93.9688,103.5,97.9688" style="stroke:#181818;stroke-width:1.0;"/><line style="stroke:#181818;stroke-width:1.0;" x1="103.5" x2="103.5" y1="333.875" y2="353.875"/><polygon fill="#181818" points="99.5,343.875,103.5,353.875,107.5,343.875,103.5,347.875" style="stroke:#181818;stroke-width:1.0;"/><line style="stroke:#181818;stroke-width:1.0;" x1="103.5" x2="103.5" y1="485.8125" y2="513.3125"/><polygon fill="#181818" points="99.5,503.3125,103.5,513.3125,107.5,503.3125,103.5,507.3125" style="stroke:#181818;stroke-width:1.0;"/><line style="stroke:#181818;stroke-width:1.0;" x1="103.5" x2="103.5" y1="431.8438" y2="451.8438"/><polygon fill="#181818" points="99.5,441.8438,103.5,451.8438,107.5,441.8438,103.5,445.8438" style="stroke:#181818;stroke-width:1.0;"/><line style="stroke:#181818;stroke-width:1.0;" x1="143.5" x2="155.5" y1="579.2813" y2="579.2813"/><polygon fill="#181818" points="151.5,505.8125,155.5,495.8125,159.5,505.8125,155.5,501.8125" style="stroke:#181818;stroke-width:1.0;"/><line style="stroke:#181818;stroke-width:1.0;" x1="155.5" x2="155.5" y1="419.8438" y2="579.2813"/><line style="stroke:#181818;stroke-width:1.0;" x1="155.5" x2="115.5" y1="419.8438" y2="419.8438"/><polygon fill="#181818" points="125.5,415.8438,115.5,419.8438,125.5,423.8438,121.5,419.8438" style="stroke:#181818;stroke-width:1.0;"/><line style="stroke:#181818;stroke-width:1.0;" x1="103.5" x2="103.5" y1="547.2813" y2="567.2813"/><polygon fill="#181818" points="99.5,557.2813,103.5,567.2813,107.5,557.2813,103.5,561.2813" style="stroke:#181818;stroke-width:1.0;"/><line style="stroke:#181818;stroke-width:1.0;" x1="103.5" x2="103.5" y1="387.8438" y2="407.8438"/><polygon fill="#181818" points="99.5,397.8438,103.5,407.8438,107.5,397.8438,103.5,401.8438" style="stroke:#181818;stroke-width:1.0;"/><line style="stroke:#181818;stroke-width:1.0;" x1="103.5" x2="103.5" y1="591.2813" y2="611.2813"/><polygon fill="#181818" points="99.5,601.2813,103.5,611.2813,107.5,601.2813,103.5,605.2813" style="stroke:#181818;stroke-width:1.0;"/><line style="stroke:#181818;stroke-width:1.0;" x1="103.5" x2="103.5" y1="689.25" y2="709.25"/><polygon fill="#181818" points="99.5,699.25,103.5,709.25,107.5,699.25,103.5,703.25" style="stroke:#181818;stroke-width:1.0;"/><line style="stroke:#181818;stroke-width:1.0;" x1="187" x2="199" y1="775.2188" y2="775.2188"/><polygon fill="#181818" points="195,736.2344,199,726.2344,203,736.2344,199,732.2344" style="stroke:#181818;stroke-width:1.0;"/><line style="stroke:#181818;stroke-width:1.0;" x1="199" x2="199" y1="677.25" y2="775.2188"/><line style="stroke:#181818;stroke-width:1.0;" x1="199" x2="115.5" y1="677.25" y2="677.25"/><polygon fill="#181818" points="125.5,673.25,115.5,677.25,125.5,681.25,121.5,677.25" style="stroke:#181818;stroke-width:1.0;"/><line style="stroke:#181818;stroke-width:1.0;" x1="103.5" x2="103.5" y1="743.2188" y2="763.2188"/><polygon fill="#181818" points="99.5,753.2188,103.5,763.2188,107.5,753.2188,103.5,757.2188" style="stroke:#181818;stroke-width:1.0;"/><line style="stroke:#181818;stroke-width:1.0;" x1="103.5" x2="103.5" y1="645.25" y2="665.25"/><polygon fill="#181818" points="99.5,655.25,103.5,665.25,107.5,655.25,103.5,659.25" style="stroke:#181818;stroke-width:1.0;"/><line style="stroke:#181818;stroke-width:1.0;" x1="103.5" x2="103.5" y1="787.2188" y2="807.2188"/><polygon fill="#181818" points="99.5,797.2188,103.5,807.2188,107.5,797.2188,103.5,801.2188" style="stroke:#181818;stroke-width:1.0;"/><!--SRC=[VP0z3u8m48PtViKbB31MDv61oSr1vGSqzjGcs9Ax8opyU6c9yGFqXWxlVJnFog994XXhKpFI0Q-MXRHOxueO4xQefuauPLtR2LJE47Bn7GjrE0lL-o7eRxR1h39cZtqWvc0PCfKdBuaZDdZ-RS2n3RKgvjbgWLKhACknDP4idqR99swdx_YNegD8Ul4KpDA5y-GxPs1RmXg60SHYe8MF-EI5lVYm-FO1]--></g></svg>