<?xml version="1.0" encoding="UTF-8" standalone="no"?><svg xmlns="http://www.w3.org/2000/svg" xmlns:xlink="http://www.w3.org/1999/xlink" contentStyleType="text/css" height="907px" preserveAspectRatio="none" style="width:1493px;height:907px;background:#FFFFFF;" version="1.1" viewBox="0 0 1493 907" width="1493px" zoomAndPan="magnify"><defs/><g><!--class RSPGame--><g id="elem_RSPGame"><rect codeLine="1" fill="#F1F1F1" height="227.2656" id="RSPGame" rx="2.5" ry="2.5" style="stroke:#181818;stroke-width:0.5;" width="260" x="667" y="7"/><ellipse cx="757.75" cy="23" fill="#ADD1B2" rx="11" ry="11" style="stroke:#181818;stroke-width:1.0;"/><path d="M760.0938,18.6719 C759.1563,18.2344 758.5625,18.0938 757.6875,18.0938 C755.0625,18.0938 753.0625,20.1719 753.0625,22.8906 L753.0625,24.0156 C753.0625,26.5938 755.1719,28.4844 758.0625,28.4844 C759.2813,28.4844 760.4375,28.1875 761.1875,27.6406 C761.7656,27.2344 762.0938,26.7813 762.0938,26.3906 C762.0938,25.9375 761.7031,25.5469 761.2344,25.5469 C761.0156,25.5469 760.8125,25.625 760.625,25.8125 C760.1719,26.2969 760.1719,26.2969 759.9844,26.3906 C759.5625,26.6563 758.875,26.7813 758.1094,26.7813 C756.0625,26.7813 754.7656,25.6875 754.7656,23.9844 L754.7656,22.8906 C754.7656,21.1094 756.0156,19.7969 757.75,19.7969 C758.3281,19.7969 758.9375,19.9531 759.4063,20.2031 C759.8906,20.4844 760.0625,20.7031 760.1563,21.1094 C760.2188,21.5156 760.25,21.6406 760.3906,21.7656 C760.5313,21.9063 760.7656,22.0156 760.9844,22.0156 C761.25,22.0156 761.5156,21.875 761.6875,21.6563 C761.7969,21.5 761.8281,21.3125 761.8281,20.8906 L761.8281,19.4688 C761.8281,19.0313 761.8125,18.9063 761.7188,18.75 C761.5625,18.4844 761.2813,18.3438 760.9844,18.3438 C760.6875,18.3438 760.4844,18.4375 760.2656,18.75 L760.0938,18.6719 Z " fill="#000000"/><text fill="#000000" font-family="sans-serif" font-size="14" lengthAdjust="spacing" textLength="70" x="778.25" y="27.8467">RSPGame</text><line style="stroke:#181818;stroke-width:0.5;" x1="668" x2="926" y1="39" y2="39"/><rect fill="none" height="6" style="stroke:#C82930;stroke-width:1.0;" width="6" x="675" y="49.6484"/><text fill="#000000" font-family="sans-serif" font-size="14" lengthAdjust="spacing" textLength="102" x="687" y="55.9951">Player player1</text><rect fill="none" height="6" style="stroke:#C82930;stroke-width:1.0;" width="6" x="675" y="65.9453"/><text fill="#000000" font-family="sans-serif" font-size="14" lengthAdjust="spacing" textLength="101" x="687" y="72.292">Player player2</text><rect fill="none" height="6" style="stroke:#C82930;stroke-width:1.0;" width="6" x="675" y="82.2422"/><text fill="#000000" font-family="sans-serif" font-size="14" lengthAdjust="spacing" textLength="90" x="687" y="88.5889">Round round</text><rect fill="none" height="6" style="stroke:#C82930;stroke-width:1.0;" width="6" x="675" y="98.5391"/><text fill="#000000" font-family="sans-serif" font-size="14" lengthAdjust="spacing" textLength="190" x="687" y="104.8857">ArrayList&lt;Player&gt;  players</text><line style="stroke:#181818;stroke-width:0.5;" x1="668" x2="926" y1="112.1875" y2="112.1875"/><ellipse cx="678" cy="125.8359" fill="#84BE84" rx="3" ry="3" style="stroke:#038048;stroke-width:1.0;"/><text fill="#000000" font-family="sans-serif" font-size="14" lengthAdjust="spacing" textLength="141" x="687" y="129.1826">void ChoosePlayer()</text><ellipse cx="678" cy="142.1328" fill="#84BE84" rx="3" ry="3" style="stroke:#038048;stroke-width:1.0;"/><text fill="#000000" font-family="sans-serif" font-size="14" lengthAdjust="spacing" textLength="85" x="687" y="145.4795">void setup()</text><ellipse cx="678" cy="158.4297" fill="#84BE84" rx="3" ry="3" style="stroke:#038048;stroke-width:1.0;"/><text fill="#000000" font-family="sans-serif" font-size="14" lengthAdjust="spacing" textLength="102" x="687" y="161.7764">void Execute()</text><ellipse cx="678" cy="174.7266" fill="#84BE84" rx="3" ry="3" style="stroke:#038048;stroke-width:1.0;"/><text fill="#000000" font-family="sans-serif" font-size="14" lengthAdjust="spacing" textLength="112" x="687" y="178.0732">void Statistics()</text><ellipse cx="678" cy="191.0234" fill="#84BE84" rx="3" ry="3" style="stroke:#038048;stroke-width:1.0;"/><text fill="#000000" font-family="sans-serif" font-size="14" lengthAdjust="spacing" textLength="149" x="687" y="194.3701">void RegisterPlayer()</text><ellipse cx="678" cy="207.3203" fill="#84BE84" rx="3" ry="3" style="stroke:#038048;stroke-width:1.0;"/><text fill="#000000" font-family="sans-serif" font-size="14" lengthAdjust="spacing" textLength="147" x="687" y="210.667">void DisplayPlayers()</text><ellipse cx="678" cy="223.6172" fill="#84BE84" rx="3" ry="3" style="stroke:#038048;stroke-width:1.0;"/><text fill="#000000" font-family="sans-serif" font-size="14" lengthAdjust="spacing" textLength="234" x="687" y="226.9639">public Player searchPlayer(int id)</text></g><!--class Player--><g id="elem_Player"><rect codeLine="16" fill="#F1F1F1" height="162.0781" id="Player" rx="2.5" ry="2.5" style="stroke:#181818;stroke-width:0.5;" width="298" x="824" y="335"/><ellipse cx="946.75" cy="351" fill="#A9DCDF" rx="11" ry="11" style="stroke:#181818;stroke-width:1.0;"/><path d="M948.8281,352.8125 L949.2188,353.7969 L948.8281,353.7969 C948.375,353.7969 948.2656,353.8125 948.1094,353.9219 C947.8594,354.0781 947.7031,354.3594 947.7031,354.6563 C947.7031,354.9219 947.8438,355.1719 948.0625,355.3281 C948.2031,355.4531 948.4063,355.5 948.8281,355.5 L951.1875,355.5 C951.5469,355.5 951.7656,355.4688 951.9063,355.375 C952.1563,355.2344 952.3125,354.9375 952.3125,354.6563 C952.3125,354.375 952.1719,354.125 951.9531,353.9688 C951.7813,353.8281 951.625,353.7969 951.1563,353.7969 L947.7656,345.5938 L944.0938,345.5938 C943.6406,345.5938 943.5156,345.6094 943.3594,345.7031 C943.1094,345.875 942.9531,346.1563 942.9531,346.4375 C942.9531,346.7188 943.0938,346.9688 943.3125,347.1406 C943.4844,347.25 943.6563,347.2813 944.0938,347.2813 L945.1719,347.2813 L942.5313,353.7969 C942.1094,353.7969 941.9531,353.8125 941.7969,353.9219 C941.5469,354.0781 941.3906,354.3594 941.3906,354.6563 C941.3906,355.2188 941.7656,355.5 942.5156,355.5 L944.7813,355.5 C945.1406,355.5 945.3594,355.4688 945.4844,355.375 C945.75,355.2344 945.8906,354.9375 945.8906,354.6563 C945.8906,354.375 945.7656,354.125 945.5469,353.9531 C945.375,353.8281 945.2344,353.7969 944.7813,353.7969 L944.3906,353.7969 L944.7813,352.8125 L948.8281,352.8125 Z M948.125,351.1094 L945.4531,351.1094 L946.7969,347.8438 L948.125,351.1094 Z " fill="#000000"/><text fill="#000000" font-family="sans-serif" font-size="14" font-style="italic" lengthAdjust="spacing" textLength="44" x="967.25" y="355.8467">Player</text><line style="stroke:#181818;stroke-width:0.5;" x1="825" x2="1121" y1="367" y2="367"/><rect fill="none" height="6" style="stroke:#C82930;stroke-width:1.0;" width="6" x="832" y="377.6484"/><text fill="#000000" font-family="sans-serif" font-size="14" lengthAdjust="spacing" textLength="37" x="844" y="383.9951">int id</text><rect fill="none" height="6" style="stroke:#C82930;stroke-width:1.0;" width="6" x="832" y="393.9453"/><text fill="#000000" font-family="sans-serif" font-size="14" lengthAdjust="spacing" textLength="88" x="844" y="400.292">String name</text><rect fill="none" height="6" style="stroke:#C82930;stroke-width:1.0;" width="6" x="832" y="410.2422"/><text fill="#000000" font-family="sans-serif" font-size="14" lengthAdjust="spacing" textLength="122" x="844" y="416.5889">Boolean isHuman</text><rect fill="none" height="6" style="stroke:#C82930;stroke-width:1.0;" width="6" x="832" y="426.5391"/><text fill="#000000" font-family="sans-serif" font-size="14" lengthAdjust="spacing" textLength="110" x="844" y="432.8857">static int count</text><line style="stroke:#181818;stroke-width:0.5;" x1="825" x2="1121" y1="440.1875" y2="440.1875"/><ellipse cx="835" cy="453.8359" fill="#84BE84" rx="3" ry="3" style="stroke:#038048;stroke-width:1.0;"/><text fill="#000000" font-family="sans-serif" font-size="14" lengthAdjust="spacing" textLength="272" x="844" y="457.1826">Player(String name, boolean isHuman)</text><ellipse cx="835" cy="470.1328" fill="#84BE84" rx="3" ry="3" style="stroke:#038048;stroke-width:1.0;"/><text fill="#000000" font-family="sans-serif" font-size="14" lengthAdjust="spacing" textLength="222" x="844" y="473.4795">abstract Boolean getIsHuman()</text><ellipse cx="835" cy="486.4297" fill="#84BE84" rx="3" ry="3" style="stroke:#038048;stroke-width:1.0;"/><text fill="#000000" font-family="sans-serif" font-size="14" lengthAdjust="spacing" textLength="216" x="844" y="489.7764">abstract int makeMovement()</text></g><!--class Human--><g id="elem_Human"><rect codeLine="27" fill="#F1F1F1" height="80.5938" id="Human" rx="2.5" ry="2.5" style="stroke:#181818;stroke-width:0.5;" width="303" x="821.5" y="614"/><ellipse cx="944.25" cy="630" fill="#ADD1B2" rx="11" ry="11" style="stroke:#181818;stroke-width:1.0;"/><path d="M946.5938,625.6719 C945.6563,625.2344 945.0625,625.0938 944.1875,625.0938 C941.5625,625.0938 939.5625,627.1719 939.5625,629.8906 L939.5625,631.0156 C939.5625,633.5938 941.6719,635.4844 944.5625,635.4844 C945.7813,635.4844 946.9375,635.1875 947.6875,634.6406 C948.2656,634.2344 948.5938,633.7813 948.5938,633.3906 C948.5938,632.9375 948.2031,632.5469 947.7344,632.5469 C947.5156,632.5469 947.3125,632.625 947.125,632.8125 C946.6719,633.2969 946.6719,633.2969 946.4844,633.3906 C946.0625,633.6563 945.375,633.7813 944.6094,633.7813 C942.5625,633.7813 941.2656,632.6875 941.2656,630.9844 L941.2656,629.8906 C941.2656,628.1094 942.5156,626.7969 944.25,626.7969 C944.8281,626.7969 945.4375,626.9531 945.9063,627.2031 C946.3906,627.4844 946.5625,627.7031 946.6563,628.1094 C946.7188,628.5156 946.75,628.6406 946.8906,628.7656 C947.0313,628.9063 947.2656,629.0156 947.4844,629.0156 C947.75,629.0156 948.0156,628.875 948.1875,628.6563 C948.2969,628.5 948.3281,628.3125 948.3281,627.8906 L948.3281,626.4688 C948.3281,626.0313 948.3125,625.9063 948.2188,625.75 C948.0625,625.4844 947.7813,625.3438 947.4844,625.3438 C947.1875,625.3438 946.9844,625.4375 946.7656,625.75 L946.5938,625.6719 Z " fill="#000000"/><text fill="#000000" font-family="sans-serif" font-size="14" lengthAdjust="spacing" textLength="49" x="964.75" y="634.8467">Human</text><line style="stroke:#181818;stroke-width:0.5;" x1="822.5" x2="1123.5" y1="646" y2="646"/><line style="stroke:#181818;stroke-width:0.5;" x1="822.5" x2="1123.5" y1="654" y2="654"/><ellipse cx="832.5" cy="667.6484" fill="#84BE84" rx="3" ry="3" style="stroke:#038048;stroke-width:1.0;"/><text fill="#000000" font-family="sans-serif" font-size="14" lengthAdjust="spacing" textLength="277" x="841.5" y="670.9951">Human(String name, boolean isHuman)</text><ellipse cx="832.5" cy="683.9453" fill="#84BE84" rx="3" ry="3" style="stroke:#038048;stroke-width:1.0;"/><text fill="#000000" font-family="sans-serif" font-size="14" lengthAdjust="spacing" textLength="157" x="841.5" y="687.292">Boolean getIsHuman()</text></g><!--class Computer--><g id="elem_Computer"><rect codeLine="32" fill="#F1F1F1" height="80.5938" id="Computer" rx="2.5" ry="2.5" style="stroke:#181818;stroke-width:0.5;" width="327" x="1159.5" y="614"/><ellipse cx="1282.25" cy="630" fill="#ADD1B2" rx="11" ry="11" style="stroke:#181818;stroke-width:1.0;"/><path d="M1284.5938,625.6719 C1283.6563,625.2344 1283.0625,625.0938 1282.1875,625.0938 C1279.5625,625.0938 1277.5625,627.1719 1277.5625,629.8906 L1277.5625,631.0156 C1277.5625,633.5938 1279.6719,635.4844 1282.5625,635.4844 C1283.7813,635.4844 1284.9375,635.1875 1285.6875,634.6406 C1286.2656,634.2344 1286.5938,633.7813 1286.5938,633.3906 C1286.5938,632.9375 1286.2031,632.5469 1285.7344,632.5469 C1285.5156,632.5469 1285.3125,632.625 1285.125,632.8125 C1284.6719,633.2969 1284.6719,633.2969 1284.4844,633.3906 C1284.0625,633.6563 1283.375,633.7813 1282.6094,633.7813 C1280.5625,633.7813 1279.2656,632.6875 1279.2656,630.9844 L1279.2656,629.8906 C1279.2656,628.1094 1280.5156,626.7969 1282.25,626.7969 C1282.8281,626.7969 1283.4375,626.9531 1283.9063,627.2031 C1284.3906,627.4844 1284.5625,627.7031 1284.6563,628.1094 C1284.7188,628.5156 1284.75,628.6406 1284.8906,628.7656 C1285.0313,628.9063 1285.2656,629.0156 1285.4844,629.0156 C1285.75,629.0156 1286.0156,628.875 1286.1875,628.6563 C1286.2969,628.5 1286.3281,628.3125 1286.3281,627.8906 L1286.3281,626.4688 C1286.3281,626.0313 1286.3125,625.9063 1286.2188,625.75 C1286.0625,625.4844 1285.7813,625.3438 1285.4844,625.3438 C1285.1875,625.3438 1284.9844,625.4375 1284.7656,625.75 L1284.5938,625.6719 Z " fill="#000000"/><text fill="#000000" font-family="sans-serif" font-size="14" lengthAdjust="spacing" textLength="73" x="1302.75" y="634.8467">Computer</text><line style="stroke:#181818;stroke-width:0.5;" x1="1160.5" x2="1485.5" y1="646" y2="646"/><line style="stroke:#181818;stroke-width:0.5;" x1="1160.5" x2="1485.5" y1="654" y2="654"/><ellipse cx="1170.5" cy="667.6484" fill="#84BE84" rx="3" ry="3" style="stroke:#038048;stroke-width:1.0;"/><text fill="#000000" font-family="sans-serif" font-size="14" lengthAdjust="spacing" textLength="301" x="1179.5" y="670.9951">Computer(String name, boolean isHuman)</text><ellipse cx="1170.5" cy="683.9453" fill="#84BE84" rx="3" ry="3" style="stroke:#038048;stroke-width:1.0;"/><text fill="#000000" font-family="sans-serif" font-size="14" lengthAdjust="spacing" textLength="157" x="1179.5" y="687.292">Boolean getIsHuman()</text></g><!--class Score--><g id="elem_Score"><rect codeLine="37" fill="#F1F1F1" height="113.1875" id="Score" rx="2.5" ry="2.5" style="stroke:#181818;stroke-width:0.5;" width="237" x="272.5" y="598"/><ellipse cx="366.25" cy="614" fill="#ADD1B2" rx="11" ry="11" style="stroke:#181818;stroke-width:1.0;"/><path d="M368.5938,609.6719 C367.6563,609.2344 367.0625,609.0938 366.1875,609.0938 C363.5625,609.0938 361.5625,611.1719 361.5625,613.8906 L361.5625,615.0156 C361.5625,617.5938 363.6719,619.4844 366.5625,619.4844 C367.7813,619.4844 368.9375,619.1875 369.6875,618.6406 C370.2656,618.2344 370.5938,617.7813 370.5938,617.3906 C370.5938,616.9375 370.2031,616.5469 369.7344,616.5469 C369.5156,616.5469 369.3125,616.625 369.125,616.8125 C368.6719,617.2969 368.6719,617.2969 368.4844,617.3906 C368.0625,617.6563 367.375,617.7813 366.6094,617.7813 C364.5625,617.7813 363.2656,616.6875 363.2656,614.9844 L363.2656,613.8906 C363.2656,612.1094 364.5156,610.7969 366.25,610.7969 C366.8281,610.7969 367.4375,610.9531 367.9063,611.2031 C368.3906,611.4844 368.5625,611.7031 368.6563,612.1094 C368.7188,612.5156 368.75,612.6406 368.8906,612.7656 C369.0313,612.9063 369.2656,613.0156 369.4844,613.0156 C369.75,613.0156 370.0156,612.875 370.1875,612.6563 C370.2969,612.5 370.3281,612.3125 370.3281,611.8906 L370.3281,610.4688 C370.3281,610.0313 370.3125,609.9063 370.2188,609.75 C370.0625,609.4844 369.7813,609.3438 369.4844,609.3438 C369.1875,609.3438 368.9844,609.4375 368.7656,609.75 L368.5938,609.6719 Z " fill="#000000"/><text fill="#000000" font-family="sans-serif" font-size="14" lengthAdjust="spacing" textLength="41" x="386.75" y="618.8467">Score</text><line style="stroke:#181818;stroke-width:0.5;" x1="273.5" x2="508.5" y1="630" y2="630"/><rect fill="none" height="6" style="stroke:#C82930;stroke-width:1.0;" width="6" x="280.5" y="640.6484"/><text fill="#000000" font-family="sans-serif" font-size="14" lengthAdjust="spacing" textLength="211" x="292.5" y="646.9951">ArrayList&lt;ScoreItem&gt; scores</text><line style="stroke:#181818;stroke-width:0.5;" x1="273.5" x2="508.5" y1="654.2969" y2="654.2969"/><ellipse cx="283.5" cy="667.9453" fill="#84BE84" rx="3" ry="3" style="stroke:#038048;stroke-width:1.0;"/><text fill="#000000" font-family="sans-serif" font-size="14" lengthAdjust="spacing" textLength="111" x="292.5" y="671.292">void addScore()</text><ellipse cx="283.5" cy="684.2422" fill="#84BE84" rx="3" ry="3" style="stroke:#038048;stroke-width:1.0;"/><text fill="#000000" font-family="sans-serif" font-size="14" lengthAdjust="spacing" textLength="145" x="292.5" y="687.5889">void displayHistory()</text><ellipse cx="283.5" cy="700.5391" fill="#84BE84" rx="3" ry="3" style="stroke:#038048;stroke-width:1.0;"/><text fill="#000000" font-family="sans-serif" font-size="14" lengthAdjust="spacing" textLength="145" x="292.5" y="703.8857">void displayWinner()</text></g><!--class ScoreItem--><g id="elem_ScoreItem"><rect codeLine="45" fill="#F1F1F1" height="129.4844" id="ScoreItem" rx="2.5" ry="2.5" style="stroke:#181818;stroke-width:0.5;" width="506" x="7" y="771"/><ellipse cx="218.25" cy="787" fill="#ADD1B2" rx="11" ry="11" style="stroke:#181818;stroke-width:1.0;"/><path d="M220.5938,782.6719 C219.6563,782.2344 219.0625,782.0938 218.1875,782.0938 C215.5625,782.0938 213.5625,784.1719 213.5625,786.8906 L213.5625,788.0156 C213.5625,790.5938 215.6719,792.4844 218.5625,792.4844 C219.7813,792.4844 220.9375,792.1875 221.6875,791.6406 C222.2656,791.2344 222.5938,790.7813 222.5938,790.3906 C222.5938,789.9375 222.2031,789.5469 221.7344,789.5469 C221.5156,789.5469 221.3125,789.625 221.125,789.8125 C220.6719,790.2969 220.6719,790.2969 220.4844,790.3906 C220.0625,790.6563 219.375,790.7813 218.6094,790.7813 C216.5625,790.7813 215.2656,789.6875 215.2656,787.9844 L215.2656,786.8906 C215.2656,785.1094 216.5156,783.7969 218.25,783.7969 C218.8281,783.7969 219.4375,783.9531 219.9063,784.2031 C220.3906,784.4844 220.5625,784.7031 220.6563,785.1094 C220.7188,785.5156 220.75,785.6406 220.8906,785.7656 C221.0313,785.9063 221.2656,786.0156 221.4844,786.0156 C221.75,786.0156 222.0156,785.875 222.1875,785.6563 C222.2969,785.5 222.3281,785.3125 222.3281,784.8906 L222.3281,783.4688 C222.3281,783.0313 222.3125,782.9063 222.2188,782.75 C222.0625,782.4844 221.7813,782.3438 221.4844,782.3438 C221.1875,782.3438 220.9844,782.4375 220.7656,782.75 L220.5938,782.6719 Z " fill="#000000"/><text fill="#000000" font-family="sans-serif" font-size="14" lengthAdjust="spacing" textLength="75" x="238.75" y="791.8467">ScoreItem</text><line style="stroke:#181818;stroke-width:0.5;" x1="8" x2="512" y1="803" y2="803"/><rect fill="none" height="6" style="stroke:#C82930;stroke-width:1.0;" width="6" x="15" y="813.6484"/><text fill="#000000" font-family="sans-serif" font-size="14" lengthAdjust="spacing" textLength="93" x="27" y="819.9951">Player player</text><rect fill="none" height="6" style="stroke:#C82930;stroke-width:1.0;" width="6" x="15" y="829.9453"/><text fill="#000000" font-family="sans-serif" font-size="14" lengthAdjust="spacing" textLength="65" x="27" y="836.292">int round</text><rect fill="none" height="6" style="stroke:#C82930;stroke-width:1.0;" width="6" x="15" y="846.2422"/><text fill="#000000" font-family="sans-serif" font-size="14" lengthAdjust="spacing" textLength="103" x="27" y="852.5889">int movement</text><rect fill="none" height="6" style="stroke:#C82930;stroke-width:1.0;" width="6" x="15" y="862.5391"/><text fill="#000000" font-family="sans-serif" font-size="14" lengthAdjust="spacing" textLength="110" x="27" y="868.8857">boolean winner</text><line style="stroke:#181818;stroke-width:0.5;" x1="8" x2="512" y1="876.1875" y2="876.1875"/><ellipse cx="18" cy="889.8359" fill="#84BE84" rx="3" ry="3" style="stroke:#038048;stroke-width:1.0;"/><text fill="#000000" font-family="sans-serif" font-size="14" lengthAdjust="spacing" textLength="480" x="27" y="893.1826">ScoreItem(Player player, int round, int movement, boolean winner)</text></g><!--class Round--><g id="elem_Round"><rect codeLine="54" fill="#F1F1F1" height="243.5625" id="Round" rx="2.5" ry="2.5" style="stroke:#181818;stroke-width:0.5;" width="333" x="455.5" y="294"/><ellipse cx="595.25" cy="310" fill="#ADD1B2" rx="11" ry="11" style="stroke:#181818;stroke-width:1.0;"/><path d="M597.5938,305.6719 C596.6563,305.2344 596.0625,305.0938 595.1875,305.0938 C592.5625,305.0938 590.5625,307.1719 590.5625,309.8906 L590.5625,311.0156 C590.5625,313.5938 592.6719,315.4844 595.5625,315.4844 C596.7813,315.4844 597.9375,315.1875 598.6875,314.6406 C599.2656,314.2344 599.5938,313.7813 599.5938,313.3906 C599.5938,312.9375 599.2031,312.5469 598.7344,312.5469 C598.5156,312.5469 598.3125,312.625 598.125,312.8125 C597.6719,313.2969 597.6719,313.2969 597.4844,313.3906 C597.0625,313.6563 596.375,313.7813 595.6094,313.7813 C593.5625,313.7813 592.2656,312.6875 592.2656,310.9844 L592.2656,309.8906 C592.2656,308.1094 593.5156,306.7969 595.25,306.7969 C595.8281,306.7969 596.4375,306.9531 596.9063,307.2031 C597.3906,307.4844 597.5625,307.7031 597.6563,308.1094 C597.7188,308.5156 597.75,308.6406 597.8906,308.7656 C598.0313,308.9063 598.2656,309.0156 598.4844,309.0156 C598.75,309.0156 599.0156,308.875 599.1875,308.6563 C599.2969,308.5 599.3281,308.3125 599.3281,307.8906 L599.3281,306.4688 C599.3281,306.0313 599.3125,305.9063 599.2188,305.75 C599.0625,305.4844 598.7813,305.3438 598.4844,305.3438 C598.1875,305.3438 597.9844,305.4375 597.7656,305.75 L597.5938,305.6719 Z " fill="#000000"/><text fill="#000000" font-family="sans-serif" font-size="14" lengthAdjust="spacing" textLength="45" x="615.75" y="314.8467">Round</text><line style="stroke:#181818;stroke-width:0.5;" x1="456.5" x2="787.5" y1="326" y2="326"/><rect fill="none" height="6" style="stroke:#C82930;stroke-width:1.0;" width="6" x="463.5" y="336.6484"/><text fill="#000000" font-family="sans-serif" font-size="14" lengthAdjust="spacing" textLength="122" x="475.5" y="342.9951">Player playerOne</text><rect fill="none" height="6" style="stroke:#C82930;stroke-width:1.0;" width="6" x="463.5" y="352.9453"/><text fill="#000000" font-family="sans-serif" font-size="14" lengthAdjust="spacing" textLength="122" x="475.5" y="359.292">Player playerTwo</text><rect fill="none" height="6" style="stroke:#C82930;stroke-width:1.0;" width="6" x="463.5" y="369.2422"/><text fill="#000000" font-family="sans-serif" font-size="14" lengthAdjust="spacing" textLength="176" x="475.5" y="375.5889">int movementPlayerOne</text><rect fill="none" height="6" style="stroke:#C82930;stroke-width:1.0;" width="6" x="463.5" y="385.5391"/><text fill="#000000" font-family="sans-serif" font-size="14" lengthAdjust="spacing" textLength="176" x="475.5" y="391.8857">int movementPlayerTwo</text><rect fill="none" height="6" style="stroke:#C82930;stroke-width:1.0;" width="6" x="463.5" y="401.8359"/><text fill="#000000" font-family="sans-serif" font-size="14" lengthAdjust="spacing" textLength="146" x="475.5" y="408.1826">final int totalRounds</text><rect fill="none" height="6" style="stroke:#C82930;stroke-width:1.0;" width="6" x="463.5" y="418.1328"/><text fill="#000000" font-family="sans-serif" font-size="14" lengthAdjust="spacing" textLength="123" x="475.5" y="424.4795">int roundCounter</text><rect fill="none" height="6" style="stroke:#C82930;stroke-width:1.0;" width="6" x="463.5" y="434.4297"/><text fill="#000000" font-family="sans-serif" font-size="14" lengthAdjust="spacing" textLength="92" x="475.5" y="440.7764">Shape shape</text><rect fill="none" height="6" style="stroke:#C82930;stroke-width:1.0;" width="6" x="463.5" y="450.7266"/><text fill="#000000" font-family="sans-serif" font-size="14" lengthAdjust="spacing" textLength="84" x="475.5" y="457.0732">Score score</text><line style="stroke:#181818;stroke-width:0.5;" x1="456.5" x2="787.5" y1="464.375" y2="464.375"/><ellipse cx="466.5" cy="478.0234" fill="#84BE84" rx="3" ry="3" style="stroke:#038048;stroke-width:1.0;"/><text fill="#000000" font-family="sans-serif" font-size="14" lengthAdjust="spacing" textLength="307" x="475.5" y="481.3701">Round(Player playerOne, Player playerTwo)</text><ellipse cx="466.5" cy="494.3203" fill="#84BE84" rx="3" ry="3" style="stroke:#038048;stroke-width:1.0;"/><text fill="#000000" font-family="sans-serif" font-size="14" lengthAdjust="spacing" textLength="154" x="475.5" y="497.667">void executeRounds()</text><ellipse cx="466.5" cy="510.6172" fill="#84BE84" rx="3" ry="3" style="stroke:#038048;stroke-width:1.0;"/><text fill="#000000" font-family="sans-serif" font-size="14" lengthAdjust="spacing" textLength="231" x="475.5" y="513.9639">void determinateRoundWinner()</text><ellipse cx="466.5" cy="526.9141" fill="#84BE84" rx="3" ry="3" style="stroke:#038048;stroke-width:1.0;"/><text fill="#000000" font-family="sans-serif" font-size="14" lengthAdjust="spacing" textLength="186" x="475.5" y="530.2607">void determinateWinner()</text></g><!--class Shape--><g id="elem_Shape"><rect codeLine="70" fill="#F1F1F1" height="96.8906" id="Shape" rx="2.5" ry="2.5" style="stroke:#181818;stroke-width:0.5;" width="190" x="596" y="606"/><ellipse cx="664.25" cy="622" fill="#A9DCDF" rx="11" ry="11" style="stroke:#181818;stroke-width:1.0;"/><path d="M666.3281,623.8125 L666.7188,624.7969 L666.3281,624.7969 C665.875,624.7969 665.7656,624.8125 665.6094,624.9219 C665.3594,625.0781 665.2031,625.3594 665.2031,625.6563 C665.2031,625.9219 665.3438,626.1719 665.5625,626.3281 C665.7031,626.4531 665.9063,626.5 666.3281,626.5 L668.6875,626.5 C669.0469,626.5 669.2656,626.4688 669.4063,626.375 C669.6563,626.2344 669.8125,625.9375 669.8125,625.6563 C669.8125,625.375 669.6719,625.125 669.4531,624.9688 C669.2813,624.8281 669.125,624.7969 668.6563,624.7969 L665.2656,616.5938 L661.5938,616.5938 C661.1406,616.5938 661.0156,616.6094 660.8594,616.7031 C660.6094,616.875 660.4531,617.1563 660.4531,617.4375 C660.4531,617.7188 660.5938,617.9688 660.8125,618.1406 C660.9844,618.25 661.1563,618.2813 661.5938,618.2813 L662.6719,618.2813 L660.0313,624.7969 C659.6094,624.7969 659.4531,624.8125 659.2969,624.9219 C659.0469,625.0781 658.8906,625.3594 658.8906,625.6563 C658.8906,626.2188 659.2656,626.5 660.0156,626.5 L662.2813,626.5 C662.6406,626.5 662.8594,626.4688 662.9844,626.375 C663.25,626.2344 663.3906,625.9375 663.3906,625.6563 C663.3906,625.375 663.2656,625.125 663.0469,624.9531 C662.875,624.8281 662.7344,624.7969 662.2813,624.7969 L661.8906,624.7969 L662.2813,623.8125 L666.3281,623.8125 Z M665.625,622.1094 L662.9531,622.1094 L664.2969,618.8438 L665.625,622.1094 Z " fill="#000000"/><text fill="#000000" font-family="sans-serif" font-size="14" font-style="italic" lengthAdjust="spacing" textLength="45" x="684.75" y="626.8467">Shape</text><line style="stroke:#181818;stroke-width:0.5;" x1="597" x2="785" y1="638" y2="638"/><polygon fill="none" points="607,646.6484,611,650.6484,607,654.6484,603,650.6484" style="stroke:#B38D22;stroke-width:1.0;"/><text fill="#000000" font-family="sans-serif" font-size="14" lengthAdjust="spacing" textLength="100" x="616" y="654.9951">Enum SHAPES</text><rect fill="none" height="6" style="stroke:#C82930;stroke-width:1.0;" width="6" x="604" y="664.9453"/><text fill="#000000" font-family="sans-serif" font-size="14" lengthAdjust="spacing" textLength="103" x="616" y="671.292">int movement</text><line style="stroke:#181818;stroke-width:0.5;" x1="597" x2="785" y1="678.5938" y2="678.5938"/><ellipse cx="607" cy="692.2422" fill="#84BE84" rx="3" ry="3" style="stroke:#038048;stroke-width:1.0;"/><text fill="#000000" font-family="sans-serif" font-size="14" lengthAdjust="spacing" textLength="164" x="616" y="695.5889">abstract int winsWith()</text></g><!--class Rock--><g id="elem_Rock"><rect codeLine="77" fill="#F1F1F1" height="64.2969" id="Rock" rx="2.5" ry="2.5" style="stroke:#181818;stroke-width:0.5;" width="125" x="868.5" y="803.5"/><ellipse cx="909.15" cy="819.5" fill="#ADD1B2" rx="11" ry="11" style="stroke:#181818;stroke-width:1.0;"/><path d="M911.4938,815.1719 C910.5563,814.7344 909.9625,814.5938 909.0875,814.5938 C906.4625,814.5938 904.4625,816.6719 904.4625,819.3906 L904.4625,820.5156 C904.4625,823.0938 906.5719,824.9844 909.4625,824.9844 C910.6813,824.9844 911.8375,824.6875 912.5875,824.1406 C913.1656,823.7344 913.4938,823.2813 913.4938,822.8906 C913.4938,822.4375 913.1031,822.0469 912.6344,822.0469 C912.4156,822.0469 912.2125,822.125 912.025,822.3125 C911.5719,822.7969 911.5719,822.7969 911.3844,822.8906 C910.9625,823.1563 910.275,823.2813 909.5094,823.2813 C907.4625,823.2813 906.1656,822.1875 906.1656,820.4844 L906.1656,819.3906 C906.1656,817.6094 907.4156,816.2969 909.15,816.2969 C909.7281,816.2969 910.3375,816.4531 910.8063,816.7031 C911.2906,816.9844 911.4625,817.2031 911.5563,817.6094 C911.6188,818.0156 911.65,818.1406 911.7906,818.2656 C911.9313,818.4063 912.1656,818.5156 912.3844,818.5156 C912.65,818.5156 912.9156,818.375 913.0875,818.1563 C913.1969,818 913.2281,817.8125 913.2281,817.3906 L913.2281,815.9688 C913.2281,815.5313 913.2125,815.4063 913.1188,815.25 C912.9625,814.9844 912.6813,814.8438 912.3844,814.8438 C912.0875,814.8438 911.8844,814.9375 911.6656,815.25 L911.4938,815.1719 Z " fill="#000000"/><text fill="#000000" font-family="sans-serif" font-size="14" lengthAdjust="spacing" textLength="36" x="928.85" y="824.3467">Rock</text><line style="stroke:#181818;stroke-width:0.5;" x1="869.5" x2="992.5" y1="835.5" y2="835.5"/><line style="stroke:#181818;stroke-width:0.5;" x1="869.5" x2="992.5" y1="843.5" y2="843.5"/><ellipse cx="879.5" cy="857.1484" fill="#84BE84" rx="3" ry="3" style="stroke:#038048;stroke-width:1.0;"/><text fill="#000000" font-family="sans-serif" font-size="14" lengthAdjust="spacing" textLength="99" x="888.5" y="860.4951">int winsWith()</text></g><!--class Scissor--><g id="elem_Scissor"><rect codeLine="81" fill="#F1F1F1" height="64.2969" id="Scissor" rx="2.5" ry="2.5" style="stroke:#181818;stroke-width:0.5;" width="125" x="548.5" y="803.5"/><ellipse cx="582.85" cy="819.5" fill="#ADD1B2" rx="11" ry="11" style="stroke:#181818;stroke-width:1.0;"/><path d="M585.1938,815.1719 C584.2563,814.7344 583.6625,814.5938 582.7875,814.5938 C580.1625,814.5938 578.1625,816.6719 578.1625,819.3906 L578.1625,820.5156 C578.1625,823.0938 580.2719,824.9844 583.1625,824.9844 C584.3813,824.9844 585.5375,824.6875 586.2875,824.1406 C586.8656,823.7344 587.1938,823.2813 587.1938,822.8906 C587.1938,822.4375 586.8031,822.0469 586.3344,822.0469 C586.1156,822.0469 585.9125,822.125 585.725,822.3125 C585.2719,822.7969 585.2719,822.7969 585.0844,822.8906 C584.6625,823.1563 583.975,823.2813 583.2094,823.2813 C581.1625,823.2813 579.8656,822.1875 579.8656,820.4844 L579.8656,819.3906 C579.8656,817.6094 581.1156,816.2969 582.85,816.2969 C583.4281,816.2969 584.0375,816.4531 584.5063,816.7031 C584.9906,816.9844 585.1625,817.2031 585.2563,817.6094 C585.3188,818.0156 585.35,818.1406 585.4906,818.2656 C585.6313,818.4063 585.8656,818.5156 586.0844,818.5156 C586.35,818.5156 586.6156,818.375 586.7875,818.1563 C586.8969,818 586.9281,817.8125 586.9281,817.3906 L586.9281,815.9688 C586.9281,815.5313 586.9125,815.4063 586.8188,815.25 C586.6625,814.9844 586.3813,814.8438 586.0844,814.8438 C585.7875,814.8438 585.5844,814.9375 585.3656,815.25 L585.1938,815.1719 Z " fill="#000000"/><text fill="#000000" font-family="sans-serif" font-size="14" lengthAdjust="spacing" textLength="50" x="601.15" y="824.3467">Scissor</text><line style="stroke:#181818;stroke-width:0.5;" x1="549.5" x2="672.5" y1="835.5" y2="835.5"/><line style="stroke:#181818;stroke-width:0.5;" x1="549.5" x2="672.5" y1="843.5" y2="843.5"/><ellipse cx="559.5" cy="857.1484" fill="#84BE84" rx="3" ry="3" style="stroke:#038048;stroke-width:1.0;"/><text fill="#000000" font-family="sans-serif" font-size="14" lengthAdjust="spacing" textLength="99" x="568.5" y="860.4951">int winsWith()</text></g><!--class Paper--><g id="elem_Paper"><rect codeLine="85" fill="#F1F1F1" height="64.2969" id="Paper" rx="2.5" ry="2.5" style="stroke:#181818;stroke-width:0.5;" width="125" x="708.5" y="803.5"/><ellipse cx="746.45" cy="819.5" fill="#ADD1B2" rx="11" ry="11" style="stroke:#181818;stroke-width:1.0;"/><path d="M748.7938,815.1719 C747.8563,814.7344 747.2625,814.5938 746.3875,814.5938 C743.7625,814.5938 741.7625,816.6719 741.7625,819.3906 L741.7625,820.5156 C741.7625,823.0938 743.8719,824.9844 746.7625,824.9844 C747.9813,824.9844 749.1375,824.6875 749.8875,824.1406 C750.4656,823.7344 750.7938,823.2813 750.7938,822.8906 C750.7938,822.4375 750.4031,822.0469 749.9344,822.0469 C749.7156,822.0469 749.5125,822.125 749.325,822.3125 C748.8719,822.7969 748.8719,822.7969 748.6844,822.8906 C748.2625,823.1563 747.575,823.2813 746.8094,823.2813 C744.7625,823.2813 743.4656,822.1875 743.4656,820.4844 L743.4656,819.3906 C743.4656,817.6094 744.7156,816.2969 746.45,816.2969 C747.0281,816.2969 747.6375,816.4531 748.1063,816.7031 C748.5906,816.9844 748.7625,817.2031 748.8563,817.6094 C748.9188,818.0156 748.95,818.1406 749.0906,818.2656 C749.2313,818.4063 749.4656,818.5156 749.6844,818.5156 C749.95,818.5156 750.2156,818.375 750.3875,818.1563 C750.4969,818 750.5281,817.8125 750.5281,817.3906 L750.5281,815.9688 C750.5281,815.5313 750.5125,815.4063 750.4188,815.25 C750.2625,814.9844 749.9813,814.8438 749.6844,814.8438 C749.3875,814.8438 749.1844,814.9375 748.9656,815.25 L748.7938,815.1719 Z " fill="#000000"/><text fill="#000000" font-family="sans-serif" font-size="14" lengthAdjust="spacing" textLength="42" x="765.55" y="824.3467">Paper</text><line style="stroke:#181818;stroke-width:0.5;" x1="709.5" x2="832.5" y1="835.5" y2="835.5"/><line style="stroke:#181818;stroke-width:0.5;" x1="709.5" x2="832.5" y1="843.5" y2="843.5"/><ellipse cx="719.5" cy="857.1484" fill="#84BE84" rx="3" ry="3" style="stroke:#038048;stroke-width:1.0;"/><text fill="#000000" font-family="sans-serif" font-size="14" lengthAdjust="spacing" textLength="99" x="728.5" y="860.4951">int winsWith()</text></g><!--reverse link RSPGame to Player--><g id="link_RSPGame_Player"><path codeLine="89" d="M871.447,245.649 C889.579,275.886 908.498,307.435 925.024,334.994 " fill="none" id="RSPGame-backto-Player" style="stroke:#181818;stroke-width:1.0;"/><polygon fill="#181818" points="864.543,234.135,864.198,241.3378,870.714,244.4267,871.0591,237.2238,864.543,234.135" style="stroke:#181818;stroke-width:1.0;"/></g><!--reverse link RSPGame to Round--><g id="link_RSPGame_Round"><path codeLine="90" d="M722.955,245.683 C713.437,261.647 703.701,277.975 694.213,293.888 " fill="none" id="RSPGame-backto-Round" style="stroke:#181818;stroke-width:1.0;"/><polygon fill="#181818" points="729.841,234.135,723.3327,237.2401,723.6958,244.4421,730.2041,241.337,729.841,234.135" style="stroke:#181818;stroke-width:1.0;"/></g><!--link Score to ScoreItem--><g id="link_Score_ScoreItem"><path codeLine="92" d="M350.269,711.156 C337.421,728.711 323.081,748.305 309.682,766.615 " fill="none" id="Score-to-ScoreItem" style="stroke:#181818;stroke-width:1.0;"/><polygon fill="#181818" points="306.658,770.745,315.2006,765.8436,309.6105,766.7098,308.7443,761.1197,306.658,770.745" style="stroke:#181818;stroke-width:1.0;"/></g><!--reverse link Player to Human--><g id="link_Player_Human"><path codeLine="94" d="M973,517.361 C973,551.436 973,587.539 973,613.998 " fill="none" id="Player-backto-Human" style="stroke:#181818;stroke-width:1.0;"/><polygon fill="none" points="966,517.068,973,497.068,980,517.068,966,517.068" style="stroke:#181818;stroke-width:1.0;"/></g><!--reverse link Player to Computer--><g id="link_Player_Computer"><path codeLine="95" d="M1108.11,508.299 C1162.31,544.918 1221.89,585.179 1264.54,613.998 " fill="none" id="Player-backto-Computer" style="stroke:#181818;stroke-width:1.0;"/><polygon fill="none" points="1104.15,514.066,1091.49,497.068,1111.98,502.466,1104.15,514.066" style="stroke:#181818;stroke-width:1.0;"/></g><!--reverse link Shape to Rock--><g id="link_Shape_Rock"><path codeLine="96" d="M774.732,714.849 C799.463,732.672 826.472,752.428 851,771 C864.713,781.383 879.52,793.015 892.622,803.4576 " fill="none" id="Shape-backto-Rock" style="stroke:#181818;stroke-width:1.0;"/><polygon fill="none" points="770.609,720.506,758.448,703.153,778.776,709.135,770.609,720.506" style="stroke:#181818;stroke-width:1.0;"/></g><!--reverse link Shape to Scissor--><g id="link_Shape_Scissor"><path codeLine="97" d="M661.239,722.09 C648.797,749.929 634.938,780.938 624.934,803.3238 " fill="none" id="Shape-backto-Scissor" style="stroke:#181818;stroke-width:1.0;"/><polygon fill="none" points="655.01,718.872,669.561,703.469,667.792,724.584,655.01,718.872" style="stroke:#181818;stroke-width:1.0;"/></g><!--reverse link Shape to Paper--><g id="link_Shape_Paper"><path codeLine="98" d="M720.761,722.09 C733.203,749.929 747.062,780.938 757.066,803.3238 " fill="none" id="Shape-backto-Paper" style="stroke:#181818;stroke-width:1.0;"/><polygon fill="none" points="714.208,724.584,712.439,703.469,726.99,718.872,714.208,724.584" style="stroke:#181818;stroke-width:1.0;"/></g><!--link Player to Shape--><g id="link_Player_Shape"><path codeLine="100" d="M877.528,497.068 C835.902,531.977 788.347,571.86 751.671,602.618 " fill="none" id="Player-to-Shape" style="stroke:#181818;stroke-width:1.0;"/><polygon fill="#181818" points="747.707,605.943,757.1734,603.2251,751.5383,602.7303,752.0331,597.0951,747.707,605.943" style="stroke:#181818;stroke-width:1.0;"/></g><!--link Round to Player--><g id="link_Round_Player"><path codeLine="101" d="M788.588,416 C798.607,416 808.627,416 818.646,416 " fill="none" id="Round-to-Player" style="stroke:#181818;stroke-width:1.0;"/><polygon fill="#181818" points="823.886,416,814.886,412,818.886,416,814.886,420,823.886,416" style="stroke:#181818;stroke-width:1.0;"/></g><!--link Round to Score--><g id="link_Round_Score"><path codeLine="102" d="M503.793,538.021 C484.805,557.462 465.914,576.803 449.175,593.94 " fill="none" id="Round-to-Score" style="stroke:#181818;stroke-width:1.0;"/><polygon fill="#181818" points="445.415,597.79,454.5661,594.1488,448.9096,594.214,448.8444,588.5575,445.415,597.79" style="stroke:#181818;stroke-width:1.0;"/></g><!--link Round to Shape--><g id="link_Round_Shape"><path codeLine="103" d="M657.309,538.021 C663.734,560.044 670.121,581.938 675.58,600.647 " fill="none" id="Round-to-Shape" style="stroke:#181818;stroke-width:1.0;"/><polygon fill="#181818" points="677.094,605.836,678.4113,596.0756,675.6927,601.0364,670.7319,598.3177,677.094,605.836" style="stroke:#181818;stroke-width:1.0;"/></g><!--SRC=[hLLDZzCm4Btlhx349T3c0ETLfQLKT2KGKOEqPzSnZRM97TdEBXNmtx4zJkp4YNQHwA5DttozDpDsI8ELGgUo-8nR-ki6-KzUDFXA9UhSp_iL_4F0JwBd5PBsEu1tKkBh5wRqBOJja0zKDwFJvacm2krh8HG5h-pjpAYexhi4FVoafDSqmKkDjId9Y4fC9ten5YfNwdnYoj83woIwwyyD8yYBLnHBKliaZ6l4Al3z0xBmMMc9YKR4DHSSezv2IFXVQidu1N4pWG1-5AAXc2EcZdsBUJ0eguyWcuIOTkkebPvIb6-BpjCyaQYHvb3gGlKzU6LBRhPYYn_fL_54MyfrDX4DMbrqaBg1RAyajCfZKc8lsixCFMhePe3-Rw6I21aVYR3DpdAlQRj3oZucwuoholaaArR1YXrD5Y6lQ-O7nlcudoadMtdjg4wtR7OUtGJzz08wzEdPLOsaZCMoIOaj6bF3uv0oj1nIBV1tryGQzs-ShbY-Fujb5KKQc9edqJyOnusZhON6ZIEa5hgsjsShxcTPuuuYPRyZqBO8bY1gd4kQpRLjqLpJVFmKhZJWb2u7DNnQGzzxJBPaqMrfZsQNarCL1lBcmFiMbSUxub2kxCtApM16hXwOhhF5gPF7wBY-v5uIffIG_n1H616ly_TlElGkp_qu4jWr5xnXl7c-2mSF37wIjx-DVxYVOtIuao2Fsns7srxCCIzu3ZjLatgvP9TQMphZ6iABTpJ4ci0oa9zZDiDV]--></g></svg>